HIERARCHY
ROOT root
{
	OFFSET	0	13.1	24.9
	CHANNELS 6  Xposition Yposition Zposition Xrotation Yrotation Zrotation
	JOINT spine_1
	{
		OFFSET	0	9.99999	0
		CHANNELS 3  Xrotation Yrotation Zrotation
		JOINT spine_2
		{
			OFFSET	0	112	-10
			CHANNELS 3  Xrotation Yrotation Zrotation
			JOINT spine_3
			{
				OFFSET	0	206.5	19.3
				CHANNELS 3  Xrotation Yrotation Zrotation
				JOINT spine_4
				{
					OFFSET	0	110.4	14.6
					CHANNELS 3  Xrotation Yrotation Zrotation
					JOINT neck_1
					{
						OFFSET	0	71.8	-50.3
						CHANNELS 3  Xrotation Yrotation Zrotation
						JOINT neck_2
						{
							OFFSET	0	86.2	-25.8
							CHANNELS 3  Xrotation Yrotation Zrotation
							JOINT head_ee
							{
								OFFSET	0	179.8	-8.7
								CHANNELS 3  Xrotation Yrotation Zrotation
								End Site
								{
									OFFSET	1	0	0
								}
							}
						}
					}
					JOINT left_clavicle
					{
						OFFSET	-43.2	22.4	-70.8
						CHANNELS 3  Xrotation Yrotation Zrotation
						JOINT left_shoulder
						{
							OFFSET	-93.9	-5.79999	48.7
							CHANNELS 3  Xrotation Yrotation Zrotation
							JOINT left_elbow
							{
								OFFSET	-291.4	-30.8	15.2
								CHANNELS 3  Xrotation Yrotation Zrotation
								JOINT left_lowarm_twist
								{
									OFFSET	-110.7	-3.89999	13.6
									CHANNELS 3  Xrotation Yrotation Zrotation
									JOINT left_hand
									{
										OFFSET	-110.7	-3.89999	13.6
										CHANNELS 3  Xrotation Yrotation Zrotation
										JOINT left_ee
										{
											OFFSET	-80.8	-5.10001	12.1
											CHANNELS 3  Xrotation Yrotation Zrotation
											End Site
											{
												OFFSET	1	0	0
											}
										}
									}
								}
							}
						}
					}
					JOINT right_clavicle
					{
						OFFSET	43.2	22.4	-70.8
						CHANNELS 3  Xrotation Yrotation Zrotation
						JOINT right_shoulder
						{
							OFFSET	93.9	-5.79999	48.7
							CHANNELS 3  Xrotation Yrotation Zrotation
							JOINT right_elbow
							{
								OFFSET	291.4	-30.8	15.2
								CHANNELS 3  Xrotation Yrotation Zrotation
								JOINT right_lowarm_twist
								{
									OFFSET	110.7	-3.89999	13.6
									CHANNELS 3  Xrotation Yrotation Zrotation
									JOINT right_hand
									{
										OFFSET	110.7	-3.89999	13.6
										CHANNELS 3  Xrotation Yrotation Zrotation
										JOINT right_ee
										{
											OFFSET	80.8	-5.10001	12.1
											CHANNELS 3  Xrotation Yrotation Zrotation
											End Site
											{
												OFFSET	1	0	0
											}
										}
									}
								}
							}
						}
					}
				}
			}
		}
	}
	JOINT left_hip
	{
		OFFSET	-82.8	-127.5	0.300001
		CHANNELS 3  Xrotation Yrotation Zrotation
		JOINT left_knee
		{
			OFFSET	-28.2	-396.7	2.2
			CHANNELS 3  Xrotation Yrotation Zrotation
			JOINT left_ankle
			{
				OFFSET	-11.7	-411.3	35.4
				CHANNELS 3  Xrotation Yrotation Zrotation
				JOINT left_toes
				{
					OFFSET	0	-60	-88.6
					CHANNELS 3  Xrotation Yrotation Zrotation
					JOINT left_foot_ee
					{
						OFFSET	-22.5	-16.5	-42.2
						CHANNELS 3  Xrotation Yrotation Zrotation
						End Site
						{
							OFFSET	1	0	0
						}
					}
				}
			}
		}
	}
	JOINT right_hip
	{
		OFFSET	82.8	-127.5	0.300001
		CHANNELS 3  Xrotation Yrotation Zrotation
		JOINT right_knee
		{
			OFFSET	28.2	-396.7	2.2
			CHANNELS 3  Xrotation Yrotation Zrotation
			JOINT right_ankle
			{
				OFFSET	11.7	-411.3	35.4
				CHANNELS 3  Xrotation Yrotation Zrotation
				JOINT right_toes
				{
					OFFSET	0	-60	-88.6
					CHANNELS 3  Xrotation Yrotation Zrotation
					JOINT right_foot_ee
					{
						OFFSET	22.5	-16.5	-42.2
						CHANNELS 3  Xrotation Yrotation Zrotation
						End Site
						{
							OFFSET	1	0	0
						}
					}
				}
			}
		}
	}
}
MOTION
Frames: 5
Frame Time: 0.02
570.752 721.152 -401.683 159.785 -74.6461 156.49 -2.03697 0.794289 3.55483 -2.03012 0.566627 3.59809 -1.98638 -0.328248 3.62757 -2.00465 0.248389 3.63391 -10.7313 -5.95329 -16.6307 -9.95863 -0.0885931 -17.6599 -0.0 0.0 -0.0 -10.9105 22.7348 -13.015 -5.93994 -10.4245 80.5828 0.853727 -22.9238 0.173105 16.1158 0.283674 -2.03234 -1.14671 28.9425 5.09577 -0.0 0.0 -0.0 13.2464 26.2797 -26.2137 12.911 25.6346 -60.6469 1.05392 27.5675 -0.258558 52.8957 1.18382 6.41544 -0.195724 -4.22303 -0.479419 0.0 0.0 0.0 16.1401 15.6984 -10.0374 -13.0656 0.313796 1.97621 9.49364 23.7535 -1.40501 -9.65193 0.0 0.0 -0.0 0.0 -0.0 -1.74456 44.603 -12.2239 -21.6282 -0.272738 -3.28814 40.4275 -8.84446 4.90607 0.985092 -0.0 -0.0 0.0 0.0 0.0 
576.554 718.405 -400.238 159.451 -75.8748 156.05 -2.0226 0.756131 3.56738 -2.01568 0.527749 3.60819 -1.97435 -0.367733 3.62796 -1.99265 0.209459 3.64052 -10.159 -6.18508 -16.5008 -9.39943 -0.434126 -17.6039 -0.0 0.0 -0.0 -11.3433 22.4288 -13.8265 -6.681 -10.6024 81.3508 0.828121 -22.3046 0.163259 16.4283 0.283487 -2.07225 -0.979309 29.0806 6.05453 -0.0 0.0 -0.0 13.5948 26.1688 -27.0364 14.603 25.8336 -59.2562 1.07538 28.0441 -0.26857 53.1302 1.20191 6.43943 0.0462153 -2.40942 -1.31853 0.0 0.0 0.0 20.1613 15.4787 -9.77396 -12.093 0.30605 1.82718 2.31056 25.5798 -0.352042 -9.12069 0.0 0.0 -0.0 0.0 -0.0 -3.17518 46.824 -12.033 -18.4568 -0.310811 -2.80308 41.4804 -10.6286 5.00938 1.8901 -0.0 -0.0 0.0 0.0 0.0 
580.771 718.417 -403.004 159.873 -76.0125 156.497 -1.96701 0.803188 3.53897 -1.96023 0.576515 3.58283 -1.9162 -0.310478 3.61557 -1.93434 0.264046 3.61925 -11.7245 -5.16136 -16.6061 -10.9523 1.08134 -17.4132 -0.0 0.0 -0.0 -11.3686 22.343 -13.9064 -7.05617 -11.0302 81.707 0.724532 -19.7437 0.126086 16.139 0.283668 -2.0353 -0.735904 29.2678 7.44117 -0.0 0.0 -0.0 13.4344 26.2885 -26.6487 16.4966 25.8022 -59.1411 1.21222 30.9835 -0.336002 53.2187 1.20875 6.44846 0.291298 0.109113 -1.90015 0.0 0.0 0.0 23.0239 14.5741 -9.52402 -13.5515 0.316717 2.05071 4.90598 25.938 -0.744125 -9.27487 0.0 0.0 -0.0 0.0 -0.0 -3.82485 47.2997 -12.0134 -17.6002 -0.316485 -2.67176 42.0816 -12.6952 5.08213 3.11823 -0.0 -0.0 0.0 0.0 0.0 
585.313 718.626 -403.579 159.447 -76.2318 156.216 -2.05436 0.87818 3.49913 -2.04779 0.653886 3.54783 -1.99914 -0.231981 3.60005 -2.01706 0.339116 3.59156 -11.5597 -5.18761 -16.5457 -10.7931 1.04263 -17.3664 -0.0 0.0 -0.0 -11.3063 22.1111 -13.9174 -7.10163 -11.3431 81.9536 0.666867 -18.2808 0.107299 16.7934 0.282993 -2.11888 -0.57889 29.021 8.19403 -0.0 0.0 -0.0 13.3753 26.3279 -26.5066 17.8598 26.1949 -59.147 1.28354 32.4478 -0.373496 53.2324 1.20981 6.44986 0.349288 -0.427939 -2.51093 0.0 0.0 0.0 25.2388 13.346 -9.95607 -14.8278 0.321381 2.24647 1.42631 26.4659 -0.21884 -10.0412 0.0 0.0 -0.0 0.0 -0.0 -4.2836 47.8068 -12.0711 -17.7112 -0.315861 -2.68878 41.8427 -13.8486 5.07712 3.3444 -0.0 -0.0 0.0 0.0 0.0 
590.609 721.102 -403.207 159.392 -77.1257 156.517 -1.87722 0.811683 3.49668 -1.87062 0.587679 3.54117 -1.82664 -0.283899 3.57831 -1.84439 0.284419 3.57827 -13.0905 -4.81098 -16.6084 -12.3188 1.32324 -17.2869 -0.0 0.0 -0.0 -11.2156 22.1374 -13.7628 -7.21603 -11.6322 82.4275 0.593618 -16.3867 0.0854719 16.7789 0.283018 -2.11702 -0.493441 29.3394 8.77807 -0.0 0.0 -0.0 13.3899 26.4253 -26.5287 19.3004 26.4412 -59.2869 1.37472 34.2529 -0.423634 53.2803 1.21353 6.45474 0.420832 -0.165064 -2.87987 0.0 0.0 0.0 26.3145 12.6683 -10.2708 -15.7074 0.322057 2.38143 1.37176 26.5222 -0.210565 -9.9654 0.0 0.0 -0.0 0.0 -0.0 -4.48975 48.1089 -12.1029 -16.2152 -0.321503 -2.45934 42.115 -14.3236 5.1072 3.79419 -0.0 -0.0 0.0 0.0 0.0 
